<svg xmlns="http://www.w3.org/2000/svg" xml:space="preserve" style="enable-background:new 0 0 122.88 121.72" viewBox="0 0 122.88 121.72"><path d="M66.41 105.5h21.91c1.76-1.75 3.69-3.57 5.65-5.42 4.11-3.89 8.4-7.95 12.81-13.03 5.04-5.81 5.58-7.82 7.11-13.51.29-1.07.61-2.27 1.03-3.76l2.62-9.21.03-.1c1.4-4.1 1.51-6.81.93-8.37-.18-.48-.41-.8-.68-.97-.21-.14-.49-.19-.78-.16-.68.07-1.45.5-2.15 1.27l-7.78 18.53c-.07.17-.17.33-.28.47-.46.83-1.08 1.64-1.88 2.41l-13.8 15.39c-.75.84-2.04.91-2.87.16-.84-.75-.91-2.04-.16-2.87l13.81-15.39c.06-.07.12-.14.19-.2 1.43-1.36 1.88-2.83 1.63-3.9-.08-.33-.22-.61-.42-.8a1.23 1.23 0 0 0-.75-.32c-1.23-.13-3.04.78-5.25 3.39-.06.07-.13.14-.2.21l-5.35 4.72-.03.03c-5.79 5.48-8.28 6.78-12.82 9.15-.95.5-1.99 1.04-3.28 1.74-.51.28-1.01.62-1.5.99-.52.4-1.02.81-1.49 1.21-2.4 2.02-3.66 3.66-4.38 5.47-.75 1.88-1.02 4.17-1.39 7.31-.15 1.27-.26 2.52-.35 3.77-.07.6-.1 1.2-.13 1.79zM61.44 0 27.96 32.79l8.17 4.29 25.09-26.35 25.53 26.35 8.17-4.29L61.44 0zM39.32 37.94l22.16-22.17 22.09 22.17v23.12H67.81V44.73H54.93v16.33H39.32V37.94zm17.15 67.55H34.55c-1.76-1.75-3.69-3.57-5.65-5.42-4.11-3.89-8.4-7.95-12.81-13.03-5.04-5.81-5.58-7.82-7.11-13.51-.29-1.07-.61-2.27-1.03-3.76l-2.62-9.21-.03-.1c-1.4-4.1-1.51-6.81-.93-8.37.18-.48.41-.8.68-.97.21-.14.49-.19.78-.16.68.07 1.45.5 2.15 1.27l7.78 18.53c.07.17.17.33.28.47.46.83 1.08 1.64 1.88 2.41l13.8 15.39c.75.84 2.04.91 2.87.16.84-.75.91-2.04.16-2.87l-13.79-15.4c-.06-.07-.12-.14-.19-.2-1.43-1.36-1.88-2.83-1.63-3.9.08-.33.22-.61.42-.8.19-.18.44-.29.75-.32 1.23-.13 3.05.78 5.25 3.39l.21.21 5.35 4.72.03.03c5.79 5.48 8.28 6.78 12.82 9.15.95.5 1.99 1.04 3.28 1.74.51.28 1.01.62 1.5.99.52.4 1.02.81 1.49 1.21 2.4 2.02 3.66 3.66 4.38 5.47.75 1.88 1.02 4.17 1.39 7.31.15 1.27.26 2.52.35 3.77.05.62.08 1.22.11 1.8zm-27.02.71c-.31.36-.5.83-.5 1.34v12.14c0 1.13.92 2.04 2.04 2.04h27.58c1.13 0 2.04-.92 2.04-2.04v-12.26c0-1.3-.08-2.7-.17-4-.09-1.33-.21-2.65-.36-3.96-.4-3.43-.7-5.94-1.66-8.35-.99-2.47-2.58-4.6-5.53-7.09-.54-.46-1.09-.92-1.67-1.35-.61-.46-1.27-.9-2.01-1.31-1.2-.65-2.32-1.24-3.34-1.78-4.2-2.2-6.5-3.4-11.91-8.52-.04-.04-.09-.08-.13-.11l-5.22-4.61c-3.19-3.73-6.31-4.97-8.7-4.71h-.01c-1.17.12-2.17.58-2.97 1.28l-5.27-12.56h-.01c-.08-.18-.18-.35-.31-.51-1.46-1.75-3.31-2.77-5.08-2.95-1.21-.12-2.38.14-3.4.8-.97.63-1.77 1.61-2.27 2.96-.88 2.35-.86 6 .86 11.05l2.6 9.15c.38 1.32.71 2.59 1.02 3.71 1.7 6.35 2.3 8.6 7.97 15.12 4.49 5.17 8.88 9.33 13.1 13.31 1.09 1.09 2.19 2.13 3.31 3.21zm3.9 3.38c.27.06.55.06.83 0h22.34v8.06H33.03v-8.06h.32zm60.08-3.38c.31.36.5.83.5 1.34v12.14c0 1.13-.91 2.04-2.04 2.04H64.32c-1.13 0-2.04-.92-2.04-2.04v-12.26c0-.07 0-.15.01-.22.03-1.31.08-2.58.16-3.78.09-1.33.21-2.65.36-3.96.4-3.43.7-5.94 1.66-8.35.99-2.47 2.58-4.6 5.53-7.09.54-.46 1.09-.92 1.67-1.35.61-.46 1.27-.9 2.01-1.31 1.2-.65 2.32-1.24 3.34-1.78 4.2-2.2 6.5-3.4 11.91-8.52.04-.04.09-.08.13-.11l5.22-4.61c3.19-3.73 6.31-4.97 8.7-4.71h.01c1.17.12 2.17.58 2.97 1.28l5.27-12.56h.01c.08-.18.18-.35.31-.51 1.46-1.75 3.31-2.77 5.08-2.95 1.21-.12 2.38.14 3.4.8.97.63 1.77 1.61 2.27 2.96.88 2.35.86 6-.86 11.05l-2.6 9.15c-.38 1.32-.71 2.59-1.02 3.71-1.7 6.35-2.3 8.6-7.97 15.12-4.49 5.17-8.88 9.33-13.1 13.31-1.1 1.09-2.2 2.13-3.32 3.21zm-3.9 3.38c-.27.06-.55.06-.83 0H66.36v8.06h23.49v-8.06h-.32z" style="fill-rule:evenodd;clip-rule:evenodd"/></svg>