<svg xmlns="http://www.w3.org/2000/svg" xml:space="preserve" style="enable-background:new 0 0 120.21 95.92" viewBox="0 0 120.21 95.92"><path d="M95.9 41.05c-.01.1-.04.2-.07.29-.03.1-.07.19-.11.28-.04.17-.07.35-.09.54-.02.21-.03.43-.03.68v.02c0 .04.01.08.01.13v33.62c.19.47.41.88.64 1.22.23.35.49.63.76.84l.01.01c.24.19.51.33.81.42.3.09.64.13 1 .12 2.59-.21 7.44-.17 10.04-.01.67.03 1.25-.04 1.73-.21.47-.17.86-.43 1.17-.79l.02-.02c.36-.42.65-.98.87-1.66.23-.71.38-1.56.46-2.54 0-8.4 2.08-21.57 2.94-30.43 0-.06 0-.12.01-.2.09-.8.06-1.45-.1-1.96-.15-.48-.4-.85-.75-1.12-.43-.33-1.02-.57-1.74-.73-.75-.16-1.65-.24-2.67-.24l-.14.01H99.78c-.03 0-.06 0-.09-.01-.76.01-1.41.08-1.95.23-.53.15-.95.36-1.27.65-.13.11-.24.24-.33.39-.09.15-.17.3-.24.47zM84.4 78.51a2.026 2.026 0 0 1-.53-.95L68.38 49.68c-.8-1.33-1.53-2.01-2.22-2.24-.64-.21-1.27-.03-1.91.35-.51.3-1.04.7-1.58 1.15-.57.48-1.12.98-1.67 1.48l-.1.09c-.65.59-1.3 1.18-1.85 1.64l-2.67 2.2-.05.04c-.98.78-2.02 1.39-3.07 1.83-1.12.46-2.26.74-3.37.83-.71.06-1.42.04-2.11-.05s-1.36-.26-1.99-.5c-.66-.25-1.29-.58-1.86-.98-.55-.39-1.05-.86-1.48-1.39-.48-.6-.88-1.28-1.17-2.04-.28-.72-.46-1.52-.54-2.37v-.12c0-.22.03-.45.1-.66.08-.24.2-.48.38-.69l7.73-9.2c1.01.91 2.08 1.75 3.2 2.52l-7.21 8.58c.06.24.14.47.23.68.12.28.28.53.46.76l.01.02a3.687 3.687 0 0 0 1.57 1.1c.34.13.72.21 1.11.26h.01c.39.04.8.05 1.22.02.71-.06 1.46-.24 2.19-.55.7-.29 1.4-.7 2.05-1.23l2.66-2.2c.56-.46 1.05-.9 1.52-1.33l.31-.28c.62-.57 1.24-1.14 1.87-1.66.11-.09.22-.19.34-.28 1.74-.68 3.4-1.46 4.97-2.35.53-.04 1.06 0 1.6.14 1.63.42 3.23 1.72 4.8 4.35 5.26 8.72 10.25 18.45 15.24 27.42h4.42V42.99c0-.05 0-.1.01-.17 0-.24.01-.48.02-.73.01-.15.02-.3.04-.44l-5.12-3.4c-.36-.24-.74-.5-1.13-.77l-1.3-.92c-2.29-1.6-4.64-3.24-7.09-4.28.72-1.13 1.39-2.32 2-3.57.86.39 1.7.82 2.52 1.3 1.73 1 3.38 2.15 4.99 3.29l.09.07c.69.48 1.38.97 2.18 1.5 1.47.95 2.93 1.96 4.4 2.94l.13-.15c.14-.16.3-.32.48-.47.72-.64 1.59-1.12 2.6-1.44.98-.31 2.09-.46 3.33-.47.03-.01.06-.01.09-.01 3.57.16 7.55-.25 11.05.01 1.42 0 2.7.13 3.84.41 1.18.29 2.2.75 3.04 1.4a6.02 6.02 0 0 1 2.05 2.79c.4 1.11.53 2.42.35 3.96-1.28 9.92-1.98 20.46-2.95 30.47-.11 1.41-.36 2.66-.74 3.77-.39 1.11-.92 2.05-1.59 2.83-.73.84-1.61 1.48-2.64 1.88-1.01.4-2.16.58-3.47.52-3.21 0-6.49.07-9.69 0a7.12 7.12 0 0 1-2.43-.29c-.78-.24-1.49-.62-2.14-1.14l-.02-.02c-.46-.38-.88-.81-1.26-1.32-.33-.43-.62-.9-.89-1.42h-3.2c.16.62.24 1.23.25 1.83.02.84-.11 1.65-.36 2.41-.24.74-.59 1.43-1.03 2.05-.46.65-1.01 1.22-1.63 1.71l-.03.02c-.59.46-1.24.85-1.92 1.16-.69.3-1.42.53-2.17.65-.75.13-1.52.15-2.28.07a7.89 7.89 0 0 1-1.88-.44c-.74.74-1.5 1.36-2.27 1.85-.87.55-1.77.95-2.68 1.21s-1.84.35-2.77.31c-.83-.04-1.65-.2-2.48-.46-.81.87-1.66 1.58-2.56 2.13-.98.61-2.01 1.04-3.09 1.27-1.1.24-2.24.28-3.41.11-1.07-.16-2.18-.49-3.31-.99-.31.23-.62.44-.95.63a9.563 9.563 0 0 1-3.09 1.17c-.63.11-1.27.16-1.93.14-1.55-.05-2.85-.3-3.98-.73a9.293 9.293 0 0 1-2.93-1.8c-.8-.71-1.46-1.52-2.07-2.41-.6-.87-1.15-1.82-1.74-2.84l-6.47-11.29h-4.46c-.15.63-.33 1.22-.56 1.76a8.05 8.05 0 0 1-1.04 1.81c-.7.91-1.57 1.6-2.62 2.06-1.03.45-2.24.68-3.64.65h-8.84c-1.16.18-2.25.13-3.24-.2-1.02-.33-1.93-.95-2.73-1.87-.7-.81-1.28-1.86-1.74-3.18-.45-1.29-.78-2.85-.97-4.69l-.02-.16L.17 44.41c-.23-1.59-.22-2.96.02-4.12.24-1.2.71-2.19 1.38-3 .68-.82 1.53-1.41 2.52-1.81.96-.39 2.06-.6 3.27-.65l.12-.01h11.95c.04 0 .07 0 .1.01 1.11-.01 2.15.08 3.09.29 1 .22 1.89.57 2.67 1.07.63.41 1.18.9 1.63 1.49.38.5.68 1.07.91 1.71h9.14c1.18-.79 2.33-1.5 3.49-2.11 1.21-.63 2.42-1.16 3.71-1.57l.02-.01c.43-.13.87-.25 1.31-.36 1.04 1.31 2.17 2.51 3.38 3.6-.43.02-.85.07-1.25.13-.78.11-1.52.28-2.24.51-1.1.34-2.17.82-3.24 1.39-1.08.58-2.18 1.27-3.32 2.06a2.076 2.076 0 0 1-1.23.41h-9.29v17.99l.04 11.33h5.21c.36 0 .72.1 1.03.28.3.17.55.43.74.75L42.4 86.1c.51.89.99 1.72 1.48 2.44.48.71.97 1.32 1.5 1.8.49.44 1.06.8 1.75 1.05l.02.01c.7.25 1.53.4 2.54.43.37.01.74-.02 1.1-.08.35-.06.69-.16 1.02-.3.2-.08.41-.19.62-.3.09-.05.18-.11.27-.16-1.46-2.73-2.95-5.46-4.39-8.2-.26-.49-.29-1.04-.14-1.53.15-.49.49-.93.98-1.19l.06-.03c.48-.24 1.02-.28 1.5-.13.49.15.92.49 1.19.97 1.64 3.06 3.28 6.12 4.91 9.18.83.41 1.63.68 2.37.82.78.14 1.52.14 2.22-.01.63-.14 1.25-.4 1.85-.78.53-.33 1.04-.76 1.55-1.28L57.78 77.9c-.3-.47-.38-1.02-.27-1.53.11-.51.42-.97.89-1.27.47-.3 1.02-.38 1.53-.27.5.11.97.42 1.27.89l7.47 11.73c.57.22 1.13.35 1.67.4.58.05 1.15 0 1.7-.15l.02-.01c.53-.15 1.06-.39 1.6-.74.46-.3.92-.68 1.39-1.13l-6.69-12.6a2.034 2.034 0 0 1 .83-2.72l.05-.03a2.05 2.05 0 0 1 1.53-.14c.49.15.92.49 1.19.97L79 84.54c.36.19.75.32 1.14.38.47.08.96.08 1.43 0 .4-.07.8-.19 1.18-.35.38-.17.75-.38 1.07-.63.32-.25.6-.54.82-.86.21-.29.38-.62.49-.95.12-.39.18-.81.15-1.26a4.56 4.56 0 0 0-.33-1.36l-.55-1zM14.07 66.35c.71 0 1.36.29 1.83.76a2.586 2.586 0 0 1 0 3.66l-.03.03a2.586 2.586 0 0 1-3.63-.03 2.586 2.586 0 0 1 0-3.66c.47-.48 1.12-.76 1.83-.76zm91.65 0c.71 0 1.36.29 1.83.76a2.586 2.586 0 0 1 0 3.66 2.586 2.586 0 0 1-3.66 0 2.586 2.586 0 0 1 0-3.66l.03-.03c.47-.46 1.1-.73 1.8-.73zm-81.5-8.66-.06-16.32c-.07-.43-.2-.79-.38-1.08-.17-.29-.4-.52-.67-.69-.4-.26-.9-.44-1.5-.55-.61-.12-1.3-.17-2.06-.16-.03.01-.07.01-.11.01-3.95 0-7.97.07-11.91 0-.67.03-1.26.13-1.74.3-.46.16-.83.39-1.08.7-.28.33-.47.8-.56 1.43-.1.67-.07 1.52.08 2.56 1.04 7.78 2.21 21.13 2.32 28.9.15 1.44.38 2.61.68 3.55.29.91.65 1.59 1.06 2.07.29.34.64.56 1.03.67.41.12.87.12 1.38.03l.18-.03.07-.01c.04-.01.07-.01.11-.01h8.88c.06 0 .13 0 .21.01.7.01 1.3-.09 1.78-.29.47-.19.85-.47 1.13-.85.36-.46.63-1.06.81-1.79.19-.73.29-1.58.33-2.54l-.01-.09V57.86c0-.06.01-.12.03-.17z" style="fill:#262626"/><path d="M60.27 0c6.74 4.27 12.82 6.29 18.05 5.81.91 18.46-5.9 29.35-17.98 33.9-.08-.03-.15-.06-.23-.09-.08.03-.15.06-.23.09C47.8 35.17 40.99 24.27 41.9 5.81c5.22.48 11.31-1.54 18.05-5.81l.16.12.16-.12zM49.32 18.19l3.94-.05.3.07c.8.46 1.54.98 2.25 1.58.51.43.99.89 1.44 1.4 1.41-2.27 2.92-4.36 4.51-6.28 1.74-2.1 2.83-3.26 4.77-5l.38-.15h4.3l-.87.96c-2.66 2.96-4.33 5.27-6.51 8.42a89.726 89.726 0 0 0-5.88 9.77l-.54 1.04-.5-1.06c-.92-1.97-2.01-3.77-3.32-5.38a21.546 21.546 0 0 0-4.61-4.26l.34-1.06z" style="fill-rule:evenodd;clip-rule:evenodd;fill:#51b53c"/></svg>